<?xml version="1.0" encoding="utf-8"?>
<!-- Generator: Adobe Illustrator 24.0.0, SVG Export Plug-In . SVG Version: 6.00 Build 0)  -->
<svg version="1.1" id="Capa_1" xmlns="http://www.w3.org/2000/svg" xmlns:xlink="http://www.w3.org/1999/xlink" x="0px" y="0px"
	 viewBox="0 0 500 500" style="enable-background:new 0 0 500 500;" xml:space="preserve">
<style type="text/css">
	.st0{fill:none;stroke:#38B000;stroke-width:27;stroke-miterlimit:10;}
	.st1{fill:none;stroke:#4EB065;stroke-width:12;stroke-miterlimit:10;}
	.st2{fill:#CCFF33;}
	.st3{fill:#70E000;}
</style>
<g>
	<path class="st0" d="M190.21,334.58c-57.31-23.54-97.66-79.91-97.66-145.7c0-86.96,70.49-157.45,157.45-157.45
		s157.45,70.49,157.45,157.45c0,65.22-40.85,122.54-97.36,146.45l-120.18,44.7"/>
	<line class="st0" x1="317.47" y1="370.91" x2="189.91" y2="418.35"/>
	<path class="st0" d="M292.83,425.13c0,23.99-19.45,43.43-43.43,43.43c-17.27,0-32.19-10.08-39.19-24.68l82.62-30.72V425.13z"/>
	<polyline class="st0" points="177.59,292.99 189.91,334.28 148.61,346.6 	"/>
</g>
<g>
	<path class="st1" d="M261.89,213.54"/>
	<path class="st2" d="M303.3,171.44c-2.35,27.35-30.81,42.83-49.39,48.21V91.89l4.18-6.76c-115.9,56.31-103.82,157.23-22.46,151.7
		v68.87h17.22l0.64-73.12c25.86-5.7,59.67-27.3,74.66-70.79L303.3,171.44z M234.2,112.68l1.24,108.45
		C190.67,222.64,160.47,174.45,234.2,112.68z"/>
	<g>
		<path class="st3" d="M253.45,90.89l4.65-5.77l0,75.98l0,15.12c8.11-12.56,19.34-20.1,33.65-20.1c5.72,0,31.64,3.28,36.41,5.67
			l-24.85,9.65c-5.41-1.75-7.58-3.39-13.62-3.39c-11.61,0-22.36,7.43-31.59,23.65l-1.16,118.19h-12.76l-2.25-202.71L253.45,90.89"/>
	</g>
</g>
</svg>
